<?xml version="1.0" encoding="utf-8"?>
<!-- Generator: Adobe Illustrator 16.0.0, SVG Export Plug-In . SVG Version: 6.00 Build 0)  -->
<!DOCTYPE svg PUBLIC "-//W3C//DTD SVG 1.1//EN" "http://www.w3.org/Graphics/SVG/1.1/DTD/svg11.dtd">
<svg version="1.1" id="Layer_1" xmlns="http://www.w3.org/2000/svg" xmlns:xlink="http://www.w3.org/1999/xlink" x="0px" y="0px"
	 width="550px" height="550px" viewBox="0 0 550 550" enable-background="new 0 0 550 550" xml:space="preserve">
<rect y="380.2" fill="#515251" width="550" height="169.8"/>
<g>
	<path fill="#FFFFFF" d="M54.5,394.7c5.5-1,13.8-1.7,22.2-1.7c11.6,0,19.5,1.9,24.9,6.5c4.4,3.7,6.9,9.3,6.9,16.1
		c0,10.4-7.1,17.5-14.6,20.2v0.4c5.7,2.2,9.2,7.8,11.2,15.5c2.5,10,4.7,19.4,6.3,22.5H96.4c-1.2-2.4-3.1-9-5.4-19
		c-2.3-10.5-6.1-13.9-14.5-14.1h-7.4v33.1H54.5V394.7z M69.1,430.3h8.7c9.9,0,16.1-5.3,16.1-13.3c0-8.9-6.2-12.9-15.8-12.9
		c-4.7,0-7.7,0.4-9.1,0.7V430.3z"/>
	<path fill="#FFFFFF" d="M167.7,438.4h-30.4v23.7h34v12.1h-48.7v-80.6h46.9v12.1h-32.2v20.8h30.4V438.4z"/>
	<path fill="#FFFFFF" d="M252.2,441.3c-0.5-10.4-1.1-23-1-33.8h-0.4c-2.6,9.8-6,20.7-9.6,30.9l-11.7,34.9h-11.4l-10.8-34.4
		c-3.1-10.3-6-21.3-8.1-31.3h-0.2c-0.4,10.5-0.8,23.3-1.4,34.3l-1.8,32.4h-13.8l5.4-80.6h19.4l10.5,32.4c2.9,9.4,5.4,19,7.4,28h0.4
		c2.2-8.7,4.9-18.7,8-28.1l11.1-32.3h19.1l4.7,80.6h-14.4L252.2,441.3z"/>
	<path fill="#FFFFFF" d="M354.6,433.1c0,27-16.4,42.5-38.6,42.5c-22.7,0-37.1-17.3-37.1-41c0-24.8,15.5-42.2,38.3-42.2
		C340.7,392.3,354.6,410.1,354.6,433.1z M294.4,434.3c0,16.4,8.3,29.4,22.4,29.4c14.2,0,22.2-13.2,22.2-30
		c0-15.2-7.5-29.5-22.2-29.5C302.2,404.1,294.4,417.6,294.4,434.3z"/>
	<path fill="#FFFFFF" d="M385.3,474.2l-26.1-80.6h16l11,36.6c3.1,10.2,5.7,19.6,7.9,29.4h0.2c2.2-9.6,5-19.4,8.3-29.2l11.7-36.8
		h15.7l-27.9,80.6H385.3z"/>
	<path fill="#FFFFFF" d="M483.9,438.4h-30.4v23.7h34v12.1h-48.7v-80.6h46.9v12.1h-32.2v20.8h30.4V438.4z"/>
	<path fill="#FFFFFF" d="M18.3,488.8h8.8v41H47v7.4H18.3V488.8z"/>
	<path fill="#FFFFFF" d="M62.5,488.8v48.4h-8.8v-48.4H62.5z"/>
	<path fill="#FFFFFF" d="M72.6,537.2v-48.4h10l12.5,20.7c3.2,5.4,6,11,8.3,16.2h0.1c-0.6-6.5-0.8-12.7-0.8-20.1v-16.9h8.2v48.4h-9.1
		L89.2,516c-3.1-5.3-6.3-11.3-8.7-16.7l-0.2,0.1c0.4,6.2,0.4,12.6,0.4,20.6v17.3H72.6z"/>
	<path fill="#FFFFFF" d="M121.2,488.8h8.8v22.2h0.2c1.1-1.9,2.4-3.6,3.5-5.2l12.6-17h10.9l-16.6,20.6l17.7,27.8h-10.3L134.2,515
		l-4.3,5.2v17h-8.8V488.8z"/>
	<path fill="#FFFFFF" d="M162.7,527.6c2.9,1.7,7.2,3.1,11.7,3.1c5.7,0,8.8-2.7,8.8-6.6c0-3.7-2.4-5.8-8.6-8
		c-8-2.9-13.1-7.1-13.1-14.1c0-7.9,6.6-13.9,17.1-13.9c5.2,0,9.1,1.1,11.6,2.4l-2.2,7.1c-1.7-0.9-5.1-2.3-9.6-2.3c-5.6,0-8,3-8,5.8
		c0,3.7,2.8,5.5,9.3,8c8.4,3.2,12.5,7.4,12.5,14.4c0,7.8-5.9,14.5-18.4,14.5c-5.1,0-10.4-1.4-13.1-3L162.7,527.6z"/>
	<path fill="#FFFFFF" d="M245.6,537.2c-1.2-1.2-2.4-2.4-3.8-4c-3.7,3.1-8.1,4.8-13.6,4.8c-10.7,0-16-6.7-16-13.6
		c0-6.5,3.8-11.1,9.3-14v-0.2c-2.3-2.7-3.9-6.2-3.9-9.7c0-6,4.6-12.4,13.6-12.4c6.8,0,12,4.2,12,10.8c0,5-2.9,9.1-10,12.6l-0.1,0.3
		c3.4,3.9,7.1,8.2,9.8,11.1c2.1-3.2,3.5-7.8,4.4-12.8h7.9c-1.3,7.5-3.5,13.6-7.5,18.2c2.7,2.9,5.3,5.9,8.3,9H245.6z M237.5,528.2
		c-2.9-3.1-7.5-8.2-12.1-13.4c-2.3,1.6-5,4.1-5,8.1c0,4.8,3.5,8.5,8.9,8.5C232.9,531.5,235.7,530.1,237.5,528.2z M225.6,499.6
		c0,2.9,1.4,5.3,3.5,7.8c4.1-2.6,6.5-4.8,6.5-8.2c0-2.6-1.4-5.5-4.8-5.5C227.3,493.7,225.6,496.6,225.6,499.6z"/>
	<path fill="#FFFFFF" d="M275.9,527.6c2.9,1.7,7.2,3.1,11.7,3.1c5.7,0,8.8-2.7,8.8-6.6c0-3.7-2.4-5.8-8.6-8
		c-8-2.9-13.1-7.1-13.1-14.1c0-7.9,6.6-13.9,17.1-13.9c5.2,0,9.1,1.1,11.6,2.4l-2.2,7.1c-1.7-0.9-5.1-2.3-9.6-2.3c-5.6,0-8,3-8,5.8
		c0,3.7,2.8,5.5,9.3,8c8.4,3.2,12.5,7.4,12.5,14.4c0,7.8-5.9,14.5-18.4,14.5c-5.1,0-10.4-1.4-13.1-3L275.9,527.6z"/>
	<path fill="#FFFFFF" d="M348,535.8c-2.1,1.1-6.7,2.2-12.5,2.2c-15.4,0-24.7-9.6-24.7-24.3c0-15.9,11.1-25.5,25.8-25.5
		c5.8,0,10,1.2,11.8,2.2l-1.9,7c-2.3-1-5.5-1.9-9.5-1.9c-9.8,0-16.9,6.2-16.9,17.8c0,10.6,6.2,17.4,16.9,17.4c3.6,0,7.3-0.7,9.6-1.8
		L348,535.8z"/>
	<path fill="#FFFFFF" d="M355.6,489.5c3.3-0.6,8.3-1,13.3-1c7,0,11.7,1.1,14.9,3.9c2.7,2.2,4.2,5.6,4.2,9.7c0,6.2-4.2,10.5-8.8,12.1
		v0.2c3.4,1.3,5.5,4.7,6.7,9.3c1.5,6,2.8,11.6,3.8,13.5h-9.1c-0.7-1.4-1.9-5.4-3.2-11.4c-1.4-6.3-3.7-8.3-8.7-8.5h-4.5v19.9h-8.8
		V489.5z M364.3,510.9h5.2c6,0,9.7-3.2,9.7-8c0-5.3-3.7-7.8-9.5-7.8c-2.8,0-4.6,0.2-5.5,0.4V510.9z"/>
	<path fill="#FFFFFF" d="M405.2,488.8v48.4h-8.8v-48.4H405.2z"/>
	<path fill="#FFFFFF" d="M415.3,489.5c3.2-0.6,7.5-1,13.5-1c6.5,0,11.2,1.4,14.3,3.9c2.9,2.4,4.7,6.2,4.7,10.7c0,4.6-1.4,8.4-4.2,11
		c-3.5,3.5-9,5.2-15.3,5.2c-1.7,0-3.2-0.1-4.3-0.3v18.2h-8.8V489.5z M424.1,512c1.1,0.3,2.5,0.4,4.3,0.4c6.6,0,10.6-3.2,10.6-8.9
		c0-5.4-3.7-8.3-9.8-8.3c-2.4,0-4.2,0.2-5.1,0.4V512z"/>
	<path fill="#FFFFFF" d="M464.7,496.2h-13.8v-7.4h36.5v7.4h-13.9v41h-8.8V496.2z"/>
	<path fill="#FFFFFF" d="M492.3,527.6c2.9,1.7,7.2,3.1,11.7,3.1c5.7,0,8.8-2.7,8.8-6.6c0-3.7-2.4-5.8-8.6-8
		c-8-2.9-13.1-7.1-13.1-14.1c0-7.9,6.6-13.9,17.1-13.9c5.2,0,9.1,1.1,11.6,2.4l-2.2,7.1c-1.7-0.9-5.1-2.3-9.6-2.3c-5.6,0-8,3-8,5.8
		c0,3.7,2.8,5.5,9.3,8c8.4,3.2,12.5,7.4,12.5,14.4c0,7.8-5.9,14.5-18.4,14.5c-5.1,0-10.4-1.4-13.1-3L492.3,527.6z"/>
</g>
<g>
	<path d="M165.9,30.2c1.2,0.7,3.4,1.5,5.3,1.5c2.3,0,3.3-0.9,3.3-2.3c0-1.4-0.8-2.1-3.4-3c-4-1.4-5.7-3.6-5.6-6c0-3.6,3-6.4,7.7-6.4
		c2.3,0,4.2,0.6,5.4,1.2l-1,3.7c-0.9-0.5-2.5-1.2-4.3-1.2c-1.8,0-2.9,0.9-2.9,2.1c0,1.3,1,1.9,3.6,2.9c3.7,1.3,5.4,3.2,5.5,6.3
		c0,3.7-2.9,6.4-8.3,6.4c-2.5,0-4.7-0.6-6.2-1.4L165.9,30.2z"/>
	<path d="M190.4,5.2h5.2v12.2h0.1c0.6-1,1.5-1.8,2.6-2.4c1-0.6,2.2-0.9,3.5-0.9c3.5,0,7.1,2.3,7.1,8.9V35h-5.2V23.5
		c0-3-1.1-5.2-3.9-5.2c-2,0-3.4,1.3-4,2.9c-0.2,0.4-0.2,1-0.2,1.6V35h-5.2V5.2z"/>
	<path d="M240.5,24.6c0,7.5-5.3,10.9-10.5,10.9c-5.8,0-10.3-4-10.3-10.5c0-6.7,4.4-10.8,10.6-10.8C236.5,14.1,240.5,18.4,240.5,24.6
		z M225.1,24.8c0,3.9,1.9,6.9,5.1,6.9c2.9,0,5-2.9,5-7c0-3.2-1.4-6.8-5-6.8C226.6,17.9,225.1,21.4,225.1,24.8z"/>
	<path d="M251.5,21.1c0-2.8,0-4.7-0.2-6.6h4.5l0.2,3.9h0.2c1-2.9,3.4-4.4,5.6-4.4c0.5,0,0.8,0,1.2,0.1v4.9c-0.4-0.1-0.9-0.2-1.5-0.2
		c-2.5,0-4.2,1.6-4.6,3.9c-0.1,0.5-0.2,1-0.2,1.6V35h-5.2V21.1z"/>
	<path d="M280.1,8.7v5.8h4.9v3.9h-4.9v9c0,2.5,0.7,3.8,2.6,3.8c0.9,0,1.6-0.1,2-0.3l0.1,3.9c-0.8,0.3-2.1,0.5-3.7,0.5
		c-1.9,0-3.5-0.6-4.5-1.7c-1.1-1.2-1.6-3-1.6-5.7v-9.6h-2.9v-3.9h2.9V9.9L280.1,8.7z"/>
	<path d="M295.6,5.2h5.2V35h-5.2V5.2z"/>
	<path d="M318.6,8.8c0,1.6-1.1,2.8-2.9,2.8c-1.7,0-2.9-1.2-2.9-2.8c0-1.6,1.2-2.8,2.9-2.8C317.5,6,318.6,7.2,318.6,8.8z M313.1,35
		V14.5h5.2V35H313.1z"/>
	<path d="M330.6,20.6c0-2.4,0-4.3-0.2-6.1h4.5l0.3,3.1h0.1c0.9-1.6,3.1-3.5,6.5-3.5c3.6,0,7.3,2.3,7.3,8.8V35h-5.2V23.4
		c0-2.9-1.1-5.2-3.9-5.2c-2.1,0-3.5,1.5-4,3c-0.2,0.5-0.2,1.1-0.2,1.7v12h-5.2V20.6z"/>
	<path d="M366.5,23.5L366.5,23.5c0.6-0.8,1.2-1.7,1.7-2.4l5-6.6h6.2l-7.6,8.4l8.7,12.1h-6.3l-5.9-9l-1.8,2.1v7h-5.2V5.2h5.2V23.5z"
		/>
	<path fill="#ED1F24" d="M178.5,58.9c0-2.8,0-4.7-0.2-6.6h4.5l0.2,3.9h0.2c1-2.9,3.4-4.4,5.6-4.4c0.5,0,0.8,0,1.2,0.1v4.9
		c-0.4-0.1-0.9-0.2-1.5-0.2c-2.5,0-4.2,1.6-4.6,3.9c-0.1,0.5-0.2,1-0.2,1.6v10.6h-5.2V58.9z"/>
	<path fill="#ED1F24" d="M199.9,68c1.2,0.7,3.4,1.5,5.3,1.5c2.3,0,3.3-0.9,3.3-2.3c0-1.4-0.8-2.1-3.4-3c-4-1.4-5.7-3.6-5.6-6
		c0-3.6,3-6.4,7.7-6.4c2.3,0,4.2,0.6,5.4,1.2l-1,3.7c-0.9-0.5-2.5-1.2-4.3-1.2c-1.8,0-2.9,0.9-2.9,2.1c0,1.3,1,1.9,3.6,2.9
		c3.7,1.3,5.4,3.2,5.5,6.3c0,3.7-2.9,6.4-8.3,6.4c-2.5,0-4.7-0.6-6.2-1.4L199.9,68z"/>
	<path fill="#ED1F24" d="M243.3,42.9V67c0,2.1,0.1,4.4,0.2,5.8h-4.6l-0.2-3.2h-0.1c-1.2,2.3-3.7,3.7-6.7,3.7
		c-4.9,0-8.7-4.2-8.7-10.5c0-6.8,4.2-10.9,9.2-10.9c2.8,0,4.8,1.2,5.8,2.7h0.1V42.9H243.3z M238.1,60.8c0-0.4,0-0.9-0.1-1.3
		c-0.5-2-2.1-3.7-4.5-3.7c-3.3,0-5.2,2.9-5.2,6.8c0,3.7,1.8,6.5,5.1,6.5c2.1,0,3.9-1.4,4.5-3.7c0.1-0.5,0.2-1,0.2-1.5V60.8z"/>
	<path fill="#ED1F24" d="M273.7,75.9V78h-21v-2.1H273.7z"/>
	<path fill="#ED1F24" d="M283.2,42.9h5.2v29.8h-5.2V42.9z"/>
	<path fill="#ED1F24" d="M306.2,46.6c0,1.6-1.1,2.8-2.9,2.8c-1.7,0-2.9-1.2-2.9-2.8c0-1.6,1.2-2.8,2.9-2.8
		C305.1,43.8,306.2,45,306.2,46.6z M300.7,72.7V52.3h5.2v20.5H300.7z"/>
	<path fill="#ED1F24" d="M318.2,58.4c0-2.4,0-4.3-0.2-6.1h4.5l0.3,3.1h0.1c0.9-1.6,3.1-3.5,6.5-3.5c3.6,0,7.3,2.3,7.3,8.8v12.1h-5.2
		V61.2c0-2.9-1.1-5.2-3.9-5.2c-2.1,0-3.5,1.5-4,3c-0.2,0.5-0.2,1.1-0.2,1.7v12h-5.2V58.4z"/>
	<path fill="#ED1F24" d="M354.1,61.3L354.1,61.3c0.6-0.8,1.2-1.7,1.7-2.4l5-6.6h6.2l-7.6,8.4l8.7,12.1h-6.3l-5.9-9l-1.8,2.1v7H349
		V42.9h5.2V61.3z"/>
	<path fill="#3A54A5" d="M67,90l2.1,9.3c0.5,2.2,0.9,4.4,1.3,6.6h0.1c0.4-2.2,1.1-4.5,1.7-6.6l2.6-9.3h4.2l2.6,9.1
		c0.6,2.4,1.2,4.6,1.6,6.8h0.1c0.3-2.2,0.8-4.5,1.3-6.8L87,90H92l-6.4,20.5h-4.8l-2.4-8.3c-0.6-2.1-1.1-4.1-1.6-6.6h-0.1
		c-0.4,2.5-1,4.5-1.6,6.6l-2.6,8.3h-4.8l-6-20.5H67z"/>
	<path fill="#3A54A5" d="M102.1,80.7h5.2v29.8h-5.2V80.7z"/>
	<path fill="#3A54A5" d="M122.7,90l2.1,9.3c0.5,2.2,0.9,4.4,1.3,6.6h0.1c0.4-2.2,1.1-4.5,1.7-6.6l2.6-9.3h4.2l2.6,9.1
		c0.6,2.4,1.2,4.6,1.6,6.8h0.1c0.3-2.2,0.8-4.5,1.3-6.8l2.3-9.1h5.1l-6.4,20.5h-4.8l-2.4-8.3c-0.6-2.1-1.1-4.1-1.6-6.6h-0.1
		c-0.4,2.5-1,4.5-1.6,6.6l-2.6,8.3h-4.8l-6-20.5H122.7z"/>
	<path fill="#3A54A5" d="M157.8,96.1c0-2.4,0-4.3-0.2-6.1h4.5l0.2,3h0.1c1-1.6,2.9-3.5,6.3-3.5c2.7,0,4.8,1.5,5.7,3.8h0.1
		c0.7-1.1,1.6-2,2.5-2.6c1.1-0.8,2.4-1.2,4.1-1.2c3.4,0,6.8,2.3,6.8,8.9v12.1h-5V99.2c0-3.4-1.2-5.4-3.7-5.4c-1.8,0-3.1,1.3-3.6,2.7
		c-0.1,0.5-0.3,1.1-0.3,1.7v12.3h-5V98.6c0-2.9-1.1-4.9-3.5-4.9c-1.9,0-3.2,1.5-3.7,2.9c-0.2,0.5-0.3,1.1-0.3,1.7v12.1h-5V96.1z"/>
	<path fill="#3A54A5" d="M211.6,110.5l-0.3-2.3h-0.1c-1.3,1.6-3.4,2.7-6,2.7c-4.1,0-6.4-3-6.4-6.1c0-5.2,4.6-7.8,12.1-7.7v-0.3
		c0-1.3-0.5-3.6-4.2-3.6c-2,0-4.1,0.6-5.5,1.5l-1-3.4c1.5-0.9,4.2-1.8,7.4-1.8c6.6,0,8.4,4.2,8.4,8.6v7.4c0,1.8,0.1,3.7,0.3,4.9
		H211.6z M210.9,100.5c-3.7-0.1-7.1,0.7-7.1,3.8c0,2,1.3,2.9,2.9,2.9c2.1,0,3.6-1.3,4-2.8c0.1-0.4,0.2-0.8,0.2-1.1V100.5z"/>
	<path fill="#3A54A5" d="M228.1,96.1c0-2.4,0-4.3-0.2-6.1h4.5l0.3,3.1h0.1c0.9-1.6,3.1-3.5,6.5-3.5c3.6,0,7.3,2.3,7.3,8.8v12.1h-5.2
		V98.9c0-2.9-1.1-5.2-3.9-5.2c-2.1,0-3.5,1.5-4,3c-0.2,0.5-0.2,1.1-0.2,1.7v12h-5.2V96.1z"/>
	<path fill="#3A54A5" d="M264.4,84.3c0,1.6-1.1,2.8-2.9,2.8c-1.7,0-2.9-1.2-2.9-2.8c0-1.6,1.2-2.8,2.9-2.8
		C263.3,81.5,264.4,82.7,264.4,84.3z M258.9,110.5V90h5.2v20.5H258.9z"/>
	<path fill="#3A54A5" d="M277,110.5V93.9h-2.8V90h2.8v-0.9c0-2.6,0.7-5.3,2.5-7c1.5-1.4,3.6-2,5.3-2c1.4,0,2.5,0.2,3.3,0.5l-0.4,4
		c-0.5-0.2-1.3-0.4-2.2-0.4c-2.6,0-3.4,2.1-3.4,4.7V90h4.5v3.9h-4.5v16.6H277z"/>
	<path fill="#3A54A5" d="M299.7,101.7c0.1,3.7,3,5.3,6.3,5.3c2.4,0,4.1-0.3,5.7-0.9l0.8,3.6c-1.8,0.7-4.2,1.3-7.1,1.3
		c-6.6,0-10.5-4.1-10.5-10.3c0-5.7,3.4-11,10-11c6.6,0,8.8,5.5,8.8,10c0,1-0.1,1.7-0.2,2.2H299.7z M308.7,98.1c0-1.9-0.8-5-4.2-5
		c-3.2,0-4.5,2.9-4.7,5H308.7z"/>
	<path fill="#3A54A5" d="M324.2,105.7c1.2,0.7,3.4,1.5,5.3,1.5c2.3,0,3.3-0.9,3.3-2.3c0-1.4-0.8-2.1-3.4-3c-4-1.4-5.7-3.6-5.6-6
		c0-3.6,3-6.4,7.7-6.4c2.3,0,4.2,0.6,5.4,1.2l-1,3.7c-0.9-0.5-2.5-1.2-4.3-1.2c-1.8,0-2.9,0.9-2.9,2.1c0,1.3,1,1.9,3.6,2.9
		c3.7,1.3,5.4,3.2,5.5,6.3c0,3.7-2.9,6.4-8.3,6.4c-2.5,0-4.7-0.6-6.2-1.4L324.2,105.7z"/>
	<path fill="#3A54A5" d="M354.6,84.2V90h4.9v3.9h-4.9v9c0,2.5,0.7,3.8,2.6,3.8c0.9,0,1.6-0.1,2-0.3l0.1,3.9
		c-0.8,0.3-2.1,0.5-3.7,0.5c-1.9,0-3.5-0.6-4.5-1.7c-1.1-1.2-1.6-3-1.6-5.7v-9.6h-2.9V90h2.9v-4.6L354.6,84.2z"/>
	<path fill="#3A54A5" d="M388.3,113.6v2.1h-21v-2.1H388.3z"/>
	<path fill="#3A54A5" d="M397.8,80.7h5.2v29.8h-5.2V80.7z"/>
	<path fill="#3A54A5" d="M420.8,84.3c0,1.6-1.1,2.8-2.9,2.8c-1.7,0-2.9-1.2-2.9-2.8c0-1.6,1.2-2.8,2.9-2.8
		C419.7,81.5,420.8,82.7,420.8,84.3z M415.3,110.5V90h5.2v20.5H415.3z"/>
	<path fill="#3A54A5" d="M432.8,96.1c0-2.4,0-4.3-0.2-6.1h4.5l0.3,3.1h0.1c0.9-1.6,3.1-3.5,6.5-3.5c3.6,0,7.3,2.3,7.3,8.8v12.1h-5.2
		V98.9c0-2.9-1.1-5.2-3.9-5.2c-2.1,0-3.5,1.5-4,3c-0.2,0.5-0.2,1.1-0.2,1.7v12h-5.2V96.1z"/>
	<path fill="#3A54A5" d="M468.7,99L468.7,99c0.6-0.8,1.2-1.7,1.7-2.4l5-6.6h6.2l-7.6,8.4l8.7,12.1h-6.3l-5.9-9l-1.8,2.1v7h-5.2V80.7
		h5.2V99z"/>
	<path fill="#FEE600" d="M151.7,148.2v-16.6h-2.8v-3.9h2.8v-0.9c0-2.6,0.7-5.3,2.5-7c1.5-1.4,3.6-2,5.3-2c1.4,0,2.5,0.2,3.3,0.5
		l-0.4,4c-0.5-0.2-1.3-0.4-2.2-0.4c-2.6,0-3.4,2.1-3.4,4.7v1.1h4.5v3.9h-4.5v16.6H151.7z"/>
	<path fill="#FEE600" d="M174.4,139.5c0.1,3.7,3,5.3,6.3,5.3c2.4,0,4.1-0.3,5.7-0.9l0.8,3.6c-1.8,0.7-4.2,1.3-7.1,1.3
		c-6.6,0-10.5-4.1-10.5-10.3c0-5.7,3.4-11,10-11c6.6,0,8.8,5.5,8.8,10c0,1-0.1,1.7-0.2,2.2H174.4z M183.4,135.8c0-1.9-0.8-5-4.2-5
		c-3.2,0-4.5,2.9-4.7,5H183.4z"/>
	<path fill="#FEE600" d="M202.8,139.5c0.1,3.7,3,5.3,6.3,5.3c2.4,0,4.1-0.3,5.7-0.9l0.8,3.6c-1.8,0.7-4.2,1.3-7.1,1.3
		c-6.6,0-10.5-4.1-10.5-10.3c0-5.7,3.4-11,10-11c6.6,0,8.8,5.5,8.8,10c0,1-0.1,1.7-0.2,2.2H202.8z M211.8,135.8c0-1.9-0.8-5-4.2-5
		c-3.2,0-4.5,2.9-4.7,5H211.8z"/>
	<path fill="#FEE600" d="M246.4,118.4v24.1c0,2.1,0.1,4.4,0.2,5.8h-4.6l-0.2-3.2h-0.1c-1.2,2.3-3.7,3.7-6.7,3.7
		c-4.9,0-8.7-4.2-8.7-10.5c0-6.8,4.2-10.9,9.2-10.9c2.8,0,4.8,1.2,5.8,2.7h0.1v-11.6H246.4z M241.2,136.3c0-0.4,0-0.9-0.1-1.3
		c-0.5-2-2.1-3.7-4.5-3.7c-3.3,0-5.2,2.9-5.2,6.8c0,3.7,1.8,6.5,5.1,6.5c2.1,0,3.9-1.4,4.5-3.7c0.1-0.5,0.2-1,0.2-1.5V136.3z"/>
	<path fill="#FEE600" d="M276.9,151.4v2.1h-21v-2.1H276.9z"/>
	<path fill="#FEE600" d="M286.4,118.4h5.2v29.8h-5.2V118.4z"/>
	<path fill="#FEE600" d="M309.4,122.1c0,1.6-1.1,2.8-2.9,2.8c-1.7,0-2.9-1.2-2.9-2.8c0-1.6,1.2-2.8,2.9-2.8
		C308.3,119.3,309.4,120.5,309.4,122.1z M303.9,148.2v-20.5h5.2v20.5H303.9z"/>
	<path fill="#FEE600" d="M321.4,133.9c0-2.4,0-4.3-0.2-6.1h4.5l0.3,3.1h0.1c0.9-1.6,3.1-3.5,6.5-3.5c3.6,0,7.3,2.3,7.3,8.8v12.1
		h-5.2v-11.6c0-2.9-1.1-5.2-3.9-5.2c-2.1,0-3.5,1.5-4,3c-0.2,0.5-0.2,1.1-0.2,1.7v12h-5.2V133.9z"/>
	<path fill="#FEE600" d="M357.3,136.8L357.3,136.8c0.6-0.8,1.2-1.7,1.7-2.4l5-6.6h6.2l-7.6,8.4l8.7,12.1h-6.3l-5.9-9l-1.8,2.1v7
		h-5.2v-29.8h5.2V136.8z"/>
	<path fill="#FEE600" d="M380,143.5c1.2,0.7,3.4,1.5,5.3,1.5c2.3,0,3.3-0.9,3.3-2.3c0-1.4-0.8-2.1-3.4-3c-4-1.4-5.7-3.6-5.6-6
		c0-3.6,3-6.4,7.7-6.4c2.3,0,4.2,0.6,5.4,1.2l-1,3.7c-0.9-0.5-2.5-1.2-4.3-1.2c-1.8,0-2.9,0.9-2.9,2.1c0,1.3,1,1.9,3.6,2.9
		c3.7,1.3,5.4,3.2,5.5,6.3c0,3.7-2.9,6.4-8.3,6.4c-2.5,0-4.7-0.6-6.2-1.4L380,143.5z"/>
	<path fill="#727373" d="M116.3,177.2c0.1,3.7,3,5.3,6.3,5.3c2.4,0,4.1-0.3,5.7-0.9l0.8,3.6c-1.8,0.7-4.2,1.3-7.1,1.3
		c-6.6,0-10.5-4.1-10.5-10.3c0-5.7,3.4-11,10-11c6.6,0,8.8,5.5,8.8,10c0,1-0.1,1.7-0.2,2.2H116.3z M125.3,173.6c0-1.9-0.8-5-4.2-5
		c-3.2,0-4.5,2.9-4.7,5H125.3z"/>
	<path fill="#727373" d="M141,171.6c0-2.4,0-4.3-0.2-6.1h4.5l0.2,3h0.1c1-1.6,2.9-3.5,6.3-3.5c2.7,0,4.8,1.5,5.7,3.8h0.1
		c0.7-1.1,1.6-2,2.5-2.6c1.1-0.8,2.4-1.2,4.1-1.2c3.4,0,6.8,2.3,6.8,8.9V186h-5v-11.3c0-3.4-1.2-5.4-3.7-5.4c-1.8,0-3.1,1.3-3.6,2.7
		c-0.1,0.5-0.3,1.1-0.3,1.7V186h-5v-11.8c0-2.9-1.1-4.9-3.5-4.9c-1.9,0-3.2,1.5-3.7,2.9c-0.2,0.5-0.3,1.1-0.3,1.7V186h-5V171.6z"/>
	<path fill="#727373" d="M202.8,175.6c0,7.5-5.3,10.9-10.5,10.9c-5.8,0-10.3-4-10.3-10.5c0-6.7,4.4-10.8,10.6-10.8
		C198.7,165.1,202.8,169.3,202.8,175.6z M187.4,175.8c0,3.9,1.9,6.9,5.1,6.9c2.9,0,5-2.9,5-7c0-3.2-1.4-6.8-5-6.8
		C188.8,168.8,187.4,172.4,187.4,175.8z"/>
	<path fill="#727373" d="M209.2,190.7c1.7-0.1,3-0.6,3.9-1.5c1-1,1.3-2.6,1.3-7.1v-16.6h5.2v18.1c0,4.2-0.8,6.9-2.6,8.7
		c-1.8,1.7-4.7,2.4-7.2,2.4L209.2,190.7z M219.9,159.8c0,1.5-1.1,2.8-2.9,2.8c-1.7,0-2.8-1.3-2.8-2.8c0-1.6,1.1-2.8,2.9-2.8
		C218.8,157,219.9,158.2,219.9,159.8z"/>
	<path fill="#727373" d="M237.3,159.8c0,1.6-1.1,2.8-2.9,2.8c-1.7,0-2.9-1.2-2.9-2.8c0-1.6,1.2-2.8,2.9-2.8
		C236.2,157,237.3,158.2,237.3,159.8z M231.8,186v-20.5h5.2V186H231.8z"/>
	<path fill="#727373" d="M267.5,189.1v2.1h-21v-2.1H267.5z"/>
	<path fill="#727373" d="M276.7,181.2c1.2,0.7,3.4,1.5,5.3,1.5c2.3,0,3.3-0.9,3.3-2.3c0-1.4-0.8-2.1-3.4-3c-4-1.4-5.7-3.6-5.6-6
		c0-3.6,3-6.4,7.7-6.4c2.3,0,4.2,0.6,5.4,1.2l-1,3.7c-0.9-0.5-2.5-1.2-4.3-1.2c-1.8,0-2.9,0.9-2.9,2.1c0,1.3,1,1.9,3.6,2.9
		c3.7,1.3,5.4,3.2,5.5,6.3c0,3.7-2.9,6.4-8.3,6.4c-2.5,0-4.7-0.6-6.2-1.4L276.7,181.2z"/>
	<path fill="#727373" d="M316.3,185.4c-1.1,0.5-3.2,1-5.8,1c-6.4,0-10.5-4.1-10.5-10.4c0-6.1,4.2-10.9,11.4-10.9c1.9,0,3.8,0.4,5,1
		l-0.9,3.9c-0.8-0.4-2.1-0.8-3.9-0.8c-3.9,0-6.3,2.9-6.3,6.6c0,4.2,2.7,6.6,6.3,6.6c1.8,0,3.1-0.4,4.1-0.8L316.3,185.4z"/>
	<path fill="#727373" d="M326.8,172.1c0-2.8,0-4.7-0.2-6.6h4.5l0.2,3.9h0.2c1-2.9,3.4-4.4,5.6-4.4c0.5,0,0.8,0,1.2,0.1v4.9
		c-0.4-0.1-0.9-0.2-1.5-0.2c-2.5,0-4.2,1.6-4.6,3.9c-0.1,0.5-0.2,1-0.2,1.6V186h-5.2V172.1z"/>
	<path fill="#727373" d="M354,159.8c0,1.6-1.1,2.8-2.9,2.8c-1.7,0-2.9-1.2-2.9-2.8c0-1.6,1.2-2.8,2.9-2.8
		C352.8,157,353.9,158.2,354,159.8z M348.5,186v-20.5h5.2V186H348.5z"/>
	<path fill="#727373" d="M366,172.3c0-2.7-0.1-4.9-0.2-6.8h4.5l0.3,3.2h0.1c1.5-2.3,3.9-3.6,7-3.6c4.7,0,8.6,4,8.6,10.4
		c0,7.4-4.7,11-9.3,11c-2.6,0-4.7-1.1-5.8-2.7h-0.1v10.6H366V172.3z M371.1,177.4c0,0.5,0,1,0.2,1.4c0.5,2.1,2.4,3.6,4.5,3.6
		c3.3,0,5.2-2.7,5.2-6.8c0-3.6-1.8-6.6-5.1-6.6c-2.1,0-4.1,1.6-4.6,3.8c-0.1,0.4-0.2,0.9-0.2,1.3V177.4z"/>
	<path fill="#727373" d="M403.2,159.7v5.8h4.9v3.9h-4.9v9c0,2.5,0.7,3.8,2.6,3.8c0.9,0,1.6-0.1,2-0.3l0.1,3.9
		c-0.8,0.3-2.1,0.5-3.7,0.5c-1.9,0-3.5-0.6-4.5-1.7c-1.1-1.2-1.6-3-1.6-5.7v-9.6h-2.9v-3.9h2.9v-4.6L403.2,159.7z"/>
	<path fill="#727373" d="M418.5,181.2c1.2,0.7,3.4,1.5,5.3,1.5c2.3,0,3.3-0.9,3.3-2.3c0-1.4-0.8-2.1-3.4-3c-4-1.4-5.7-3.6-5.6-6
		c0-3.6,3-6.4,7.7-6.4c2.3,0,4.2,0.6,5.4,1.2l-1,3.7c-0.9-0.5-2.5-1.2-4.3-1.2c-1.8,0-2.9,0.9-2.9,2.1c0,1.3,1,1.9,3.6,2.9
		c3.7,1.3,5.4,3.2,5.5,6.3c0,3.7-2.9,6.4-8.3,6.4c-2.5,0-4.7-0.6-6.2-1.4L418.5,181.2z"/>
	<path fill="#0B6E9A" d="M151.5,203.3l2.1,9.3c0.5,2.2,0.9,4.4,1.3,6.6h0.1c0.4-2.2,1.1-4.5,1.7-6.6l2.6-9.3h4.2l2.6,9.1
		c0.6,2.4,1.2,4.6,1.6,6.8h0.1c0.3-2.2,0.8-4.5,1.3-6.8l2.3-9.1h5.1l-6.4,20.5h-4.8l-2.4-8.3c-0.6-2.1-1.1-4.1-1.6-6.6h-0.1
		c-0.4,2.5-1,4.5-1.6,6.6l-2.6,8.3h-4.8l-6-20.5H151.5z"/>
	<path fill="#0B6E9A" d="M186.6,210.1c0-2.7-0.1-4.9-0.2-6.8h4.5l0.3,3.2h0.1c1.5-2.3,3.9-3.6,7-3.6c4.7,0,8.6,4,8.6,10.4
		c0,7.4-4.7,11-9.3,11c-2.6,0-4.7-1.1-5.8-2.7h-0.1V232h-5.2V210.1z M191.8,215.2c0,0.5,0,1,0.2,1.4c0.5,2.1,2.4,3.6,4.5,3.6
		c3.3,0,5.2-2.7,5.2-6.8c0-3.6-1.8-6.6-5.1-6.6c-2.1,0-4.1,1.6-4.6,3.8c-0.1,0.4-0.2,0.9-0.2,1.3V215.2z"/>
	<path fill="#0B6E9A" d="M236.1,226.9v2.1h-21v-2.1H236.1z"/>
	<path fill="#0B6E9A" d="M249.3,215c0.1,3.7,3,5.3,6.3,5.3c2.4,0,4.1-0.3,5.7-0.9l0.8,3.6c-1.8,0.7-4.2,1.3-7.1,1.3
		c-6.6,0-10.5-4.1-10.5-10.3c0-5.7,3.4-11,10-11c6.6,0,8.8,5.5,8.8,10c0,1-0.1,1.7-0.2,2.2H249.3z M258.2,211.3c0-1.9-0.8-5-4.2-5
		c-3.2,0-4.5,2.9-4.7,5H258.2z"/>
	<path fill="#0B6E9A" d="M274,209.4c0-2.4,0-4.3-0.2-6.1h4.5l0.2,3h0.1c1-1.6,2.9-3.5,6.3-3.5c2.7,0,4.8,1.5,5.7,3.8h0.1
		c0.7-1.1,1.6-2,2.5-2.6c1.1-0.8,2.4-1.2,4.1-1.2c3.4,0,6.8,2.3,6.8,8.9v12.1h-5v-11.3c0-3.4-1.2-5.4-3.7-5.4
		c-1.8,0-3.1,1.3-3.6,2.7c-0.1,0.5-0.3,1.1-0.3,1.7v12.3h-5v-11.8c0-2.9-1.1-4.9-3.5-4.9c-1.9,0-3.2,1.5-3.7,2.9
		c-0.2,0.5-0.3,1.1-0.3,1.7v12.1h-5V209.4z"/>
	<path fill="#0B6E9A" d="M316.2,223.7c0.1-1.4,0.2-3.7,0.2-5.8v-24.1h5.2v12.2h0.1c1.3-2,3.5-3.3,6.6-3.3c5,0,8.6,4.2,8.5,10.4
		c0,7.4-4.7,11-9.3,11c-2.6,0-5-1-6.5-3.5h-0.1l-0.3,3.1H316.2z M321.5,215.3c0,0.4,0,0.8,0.1,1.2c0.5,2.1,2.4,3.6,4.6,3.6
		c3.2,0,5.2-2.6,5.2-6.7c0-3.6-1.7-6.6-5.2-6.6c-2.1,0-4,1.5-4.6,3.8c-0.1,0.4-0.2,0.8-0.2,1.3V215.3z"/>
	<path fill="#0B6E9A" d="M351.3,215c0.1,3.7,3,5.3,6.3,5.3c2.4,0,4.1-0.3,5.7-0.9l0.8,3.6c-1.8,0.7-4.2,1.3-7.1,1.3
		c-6.6,0-10.5-4.1-10.5-10.3c0-5.7,3.4-11,10-11c6.6,0,8.8,5.5,8.8,10c0,1-0.1,1.7-0.2,2.2H351.3z M360.3,211.3c0-1.9-0.8-5-4.2-5
		c-3.2,0-4.5,2.9-4.7,5H360.3z"/>
	<path fill="#0B6E9A" d="M394.9,193.9V218c0,2.1,0.1,4.4,0.2,5.8h-4.6l-0.2-3.2h-0.1c-1.2,2.3-3.7,3.7-6.7,3.7
		c-4.9,0-8.7-4.2-8.7-10.5c0-6.8,4.2-10.9,9.2-10.9c2.8,0,4.8,1.2,5.8,2.7h0.1v-11.6H394.9z M389.7,211.8c0-0.4,0-0.9-0.1-1.3
		c-0.5-2-2.1-3.7-4.5-3.7c-3.3,0-5.2,2.9-5.2,6.8c0,3.7,1.8,6.5,5.1,6.5c2.1,0,3.9-1.4,4.5-3.7c0.1-0.5,0.2-1,0.2-1.5V211.8z"/>
	<path fill="#36803D" d="M180.6,241l2.1,9.3c0.5,2.2,0.9,4.4,1.3,6.6h0.1c0.4-2.2,1.1-4.5,1.7-6.6l2.6-9.3h4.2l2.6,9.1
		c0.6,2.4,1.2,4.6,1.6,6.8h0.1c0.3-2.2,0.8-4.5,1.3-6.8l2.3-9.1h5.1l-6.4,20.5h-4.8l-2.4-8.3c-0.6-2.1-1.1-4.1-1.6-6.6h-0.1
		c-0.4,2.5-1,4.5-1.6,6.6l-2.6,8.3h-4.8l-6-20.5H180.6z"/>
	<path fill="#36803D" d="M215.6,247.8c0-2.7-0.1-4.9-0.2-6.8h4.5l0.3,3.2h0.1c1.5-2.3,3.9-3.6,7-3.6c4.7,0,8.6,4,8.6,10.4
		c0,7.4-4.7,11-9.3,11c-2.6,0-4.7-1.1-5.8-2.7h-0.1v10.6h-5.2V247.8z M220.8,252.9c0,0.5,0,1,0.2,1.4c0.5,2.1,2.4,3.6,4.5,3.6
		c3.3,0,5.2-2.7,5.2-6.8c0-3.6-1.8-6.6-5.1-6.6c-2.1,0-4.1,1.6-4.6,3.8c-0.1,0.4-0.2,0.9-0.2,1.3V252.9z"/>
	<path fill="#36803D" d="M265.2,264.6v2.1h-21v-2.1H265.2z"/>
	<path fill="#36803D" d="M270.1,266.2c1.7-0.1,3-0.6,3.9-1.5c1-1,1.3-2.6,1.3-7.1V241h5.2v18.1c0,4.2-0.8,6.9-2.6,8.7
		c-1.8,1.7-4.7,2.4-7.2,2.4L270.1,266.2z M280.8,235.3c0,1.5-1.1,2.8-2.9,2.8c-1.7,0-2.8-1.3-2.8-2.8c0-1.6,1.1-2.8,2.9-2.8
		C279.7,232.5,280.8,233.7,280.8,235.3z"/>
	<path fill="#36803D" d="M292.5,256.7c1.2,0.7,3.4,1.5,5.3,1.5c2.3,0,3.3-0.9,3.3-2.3c0-1.4-0.8-2.1-3.4-3c-4-1.4-5.7-3.6-5.6-6
		c0-3.6,3-6.4,7.7-6.4c2.3,0,4.2,0.6,5.4,1.2l-1,3.7c-0.9-0.5-2.5-1.2-4.3-1.2c-1.8,0-2.9,0.9-2.9,2.1c0,1.3,1,1.9,3.6,2.9
		c3.7,1.3,5.4,3.2,5.5,6.3c0,3.7-2.9,6.4-8.3,6.4c-2.5,0-4.7-0.6-6.2-1.4L292.5,256.7z"/>
	<path fill="#36803D" d="M336.4,251.1c0,7.5-5.3,10.9-10.5,10.9c-5.8,0-10.3-4-10.3-10.5c0-6.7,4.4-10.8,10.6-10.8
		C332.3,240.6,336.4,244.8,336.4,251.1z M321,251.3c0,3.9,1.9,6.9,5.1,6.9c2.9,0,5-2.9,5-7c0-3.2-1.4-6.8-5-6.8
		C322.4,244.3,321,247.9,321,251.3z"/>
	<path fill="#36803D" d="M347.3,247.1c0-2.4,0-4.3-0.2-6.1h4.5l0.3,3.1h0.1c0.9-1.6,3.1-3.5,6.5-3.5c3.6,0,7.3,2.3,7.3,8.8v12.1
		h-5.2v-11.6c0-2.9-1.1-5.2-3.9-5.2c-2.1,0-3.5,1.5-4,3c-0.2,0.5-0.2,1.1-0.2,1.7v12h-5.2V247.1z"/>
	<path fill="#926527" d="M127.3,290.4c0.1,3.7,3,5.3,6.3,5.3c2.4,0,4.1-0.3,5.7-0.9l0.8,3.6c-1.8,0.7-4.2,1.3-7.1,1.3
		c-6.6,0-10.5-4.1-10.5-10.3c0-5.7,3.4-11,10-11c6.6,0,8.8,5.5,8.8,10c0,1-0.1,1.7-0.2,2.2H127.3z M136.3,286.8c0-1.9-0.8-5-4.2-5
		c-3.2,0-4.5,2.9-4.7,5H136.3z"/>
	<path fill="#926527" d="M152,284.9c0-2.4,0-4.3-0.2-6.1h4.5l0.2,3h0.1c1-1.6,2.9-3.5,6.3-3.5c2.7,0,4.8,1.5,5.7,3.8h0.1
		c0.7-1.1,1.6-2,2.5-2.6c1.1-0.8,2.4-1.2,4.1-1.2c3.4,0,6.8,2.3,6.8,8.9v12.1h-5v-11.3c0-3.4-1.2-5.4-3.7-5.4
		c-1.8,0-3.1,1.3-3.6,2.7c-0.1,0.5-0.3,1.1-0.3,1.7v12.3h-5v-11.8c0-2.9-1.1-4.9-3.5-4.9c-1.9,0-3.2,1.5-3.7,2.9
		c-0.2,0.5-0.3,1.1-0.3,1.7v12.1h-5V284.9z"/>
	<path fill="#926527" d="M213.8,288.8c0,7.5-5.3,10.9-10.5,10.9c-5.8,0-10.3-4-10.3-10.5c0-6.7,4.4-10.8,10.6-10.8
		C209.8,278.3,213.8,282.6,213.8,288.8z M198.4,289c0,3.9,1.9,6.9,5.1,6.9c2.9,0,5-2.9,5-7c0-3.2-1.4-6.8-5-6.8
		C199.9,282.1,198.4,285.6,198.4,289z"/>
	<path fill="#926527" d="M220.3,304c1.7-0.1,3-0.6,3.9-1.5c1-1,1.3-2.6,1.3-7.1v-16.6h5.2v18.1c0,4.2-0.8,6.9-2.6,8.7
		c-1.8,1.7-4.7,2.4-7.2,2.4L220.3,304z M230.9,273.1c0,1.5-1.1,2.8-2.9,2.8c-1.7,0-2.8-1.3-2.8-2.8c0-1.6,1.1-2.8,2.9-2.8
		C229.8,270.2,230.9,271.5,230.9,273.1z"/>
	<path fill="#926527" d="M248.4,273.1c0,1.6-1.1,2.8-2.9,2.8c-1.7,0-2.9-1.2-2.9-2.8c0-1.6,1.2-2.8,2.9-2.8
		C247.2,270.2,248.3,271.5,248.4,273.1z M242.8,299.2v-20.5h5.2v20.5H242.8z"/>
	<path fill="#926527" d="M278.6,302.4v2.1h-21v-2.1H278.6z"/>
	<path fill="#926527" d="M287.8,294.5c1.2,0.7,3.4,1.5,5.3,1.5c2.3,0,3.3-0.9,3.3-2.3c0-1.4-0.8-2.1-3.4-3c-4-1.4-5.7-3.6-5.6-6
		c0-3.6,3-6.4,7.7-6.4c2.3,0,4.2,0.6,5.4,1.2l-1,3.7c-0.9-0.5-2.5-1.2-4.3-1.2c-1.8,0-2.9,0.9-2.9,2.1c0,1.3,1,1.9,3.6,2.9
		c3.7,1.3,5.4,3.2,5.5,6.3c0,3.7-2.9,6.4-8.3,6.4c-2.5,0-4.7-0.6-6.2-1.4L287.8,294.5z"/>
	<path fill="#926527" d="M318.2,272.9v5.8h4.9v3.9h-4.9v9c0,2.5,0.7,3.8,2.6,3.8c0.9,0,1.6-0.1,2-0.3l0.1,3.9
		c-0.8,0.3-2.1,0.5-3.7,0.5c-1.9,0-3.5-0.6-4.5-1.7c-1.1-1.2-1.6-3-1.6-5.7v-9.6h-2.9v-3.9h2.9v-4.6L318.2,272.9z"/>
	<path fill="#926527" d="M337.3,278.8l3.7,11c0.4,1.3,0.8,2.8,1.1,4h0.1c0.3-1.2,0.7-2.7,1.1-4l3.2-10.9h5.5l-5.1,13.9
		c-2.8,7.6-4.7,11-7.1,13.1c-2,1.8-4.1,2.5-5.4,2.6l-1.2-4.4c0.9-0.2,2-0.7,3-1.4c1-0.6,2.1-1.8,2.8-3.2c0.2-0.4,0.3-0.7,0.3-0.9
		c0-0.2,0-0.5-0.3-1l-7.5-18.8H337.3z"/>
	<path fill="#926527" d="M361.8,269.4h5.2v29.8h-5.2V269.4z"/>
	<path fill="#926527" d="M382.9,290.4c0.1,3.7,3,5.3,6.3,5.3c2.4,0,4.1-0.3,5.7-0.9l0.8,3.6c-1.8,0.7-4.2,1.3-7.1,1.3
		c-6.6,0-10.5-4.1-10.5-10.3c0-5.7,3.4-11,10-11c6.6,0,8.8,5.5,8.8,10c0,1-0.1,1.7-0.2,2.2H382.9z M391.9,286.8c0-1.9-0.8-5-4.2-5
		c-3.2,0-4.5,2.9-4.7,5H391.9z"/>
	<path fill="#926527" d="M407.4,294.5c1.2,0.7,3.4,1.5,5.3,1.5c2.3,0,3.3-0.9,3.3-2.3c0-1.4-0.8-2.1-3.4-3c-4-1.4-5.7-3.6-5.6-6
		c0-3.6,3-6.4,7.7-6.4c2.3,0,4.2,0.6,5.4,1.2l-1,3.7c-0.9-0.5-2.5-1.2-4.3-1.2c-1.8,0-2.9,0.9-2.9,2.1c0,1.3,1,1.9,3.6,2.9
		c3.7,1.3,5.4,3.2,5.5,6.3c0,3.7-2.9,6.4-8.3,6.4c-2.5,0-4.7-0.6-6.2-1.4L407.4,294.5z"/>
	<path fill="#D3849A" d="M176.1,316.5c-0.1,1.4-0.2,3.1-0.2,5.9V334c0,4.3-0.9,7.4-3,9.3c-2.1,1.9-5.1,2.5-7.9,2.5
		c-2.6,0-5.4-0.5-7.1-1.6l1.1-3.9c1.3,0.8,3.5,1.6,6,1.6c3.4,0,5.9-1.8,5.9-6.2v-1.8h-0.1c-1.2,1.8-3.3,3-6,3c-5.1,0-8.7-4.2-8.7-10
		c0-6.7,4.4-10.8,9.3-10.8c3.1,0,5,1.5,5.9,3.2h0.1l0.2-2.7H176.1z M170.8,324.7c0-0.5,0-1-0.2-1.4c-0.5-1.9-2-3.3-4.2-3.3
		c-2.9,0-5,2.5-5,6.7c0,3.5,1.8,6.3,5,6.3c1.9,0,3.6-1.3,4.2-3.1c0.1-0.5,0.2-1.3,0.2-1.8V324.7z"/>
	<path fill="#D3849A" d="M191.9,328.2c0.1,3.7,3,5.3,6.3,5.3c2.4,0,4.1-0.3,5.7-0.9l0.8,3.6c-1.8,0.7-4.2,1.3-7.1,1.3
		c-6.6,0-10.5-4.1-10.5-10.3c0-5.7,3.4-11,10-11c6.6,0,8.8,5.5,8.8,10c0,1-0.1,1.7-0.2,2.2H191.9z M200.9,324.6c0-1.9-0.8-5-4.2-5
		c-3.2,0-4.5,2.9-4.7,5H200.9z"/>
	<path fill="#D3849A" d="M216.6,322.6c0-2.4,0-4.3-0.2-6.1h4.5l0.3,3.1h0.1c0.9-1.6,3.1-3.5,6.5-3.5c3.6,0,7.3,2.3,7.3,8.8V337H230
		v-11.6c0-2.9-1.1-5.2-3.9-5.2c-2.1,0-3.5,1.5-4,3c-0.2,0.5-0.2,1.1-0.2,1.7v12h-5.2V322.6z"/>
	<path fill="#D3849A" d="M251,328.2c0.1,3.7,3,5.3,6.3,5.3c2.4,0,4.1-0.3,5.7-0.9l0.8,3.6c-1.8,0.7-4.2,1.3-7.1,1.3
		c-6.6,0-10.5-4.1-10.5-10.3c0-5.7,3.4-11,10-11c6.6,0,8.8,5.5,8.8,10c0,1-0.1,1.7-0.2,2.2H251z M260,324.6c0-1.9-0.8-5-4.2-5
		c-3.2,0-4.5,2.9-4.7,5H260z"/>
	<path fill="#D3849A" d="M275.7,323.1c0-2.8,0-4.7-0.2-6.6h4.5l0.2,3.9h0.2c1-2.9,3.4-4.4,5.6-4.4c0.5,0,0.8,0,1.2,0.1v4.9
		c-0.4-0.1-0.9-0.2-1.5-0.2c-2.5,0-4.2,1.6-4.6,3.9c-0.1,0.5-0.2,1-0.2,1.6V337h-5.2V323.1z"/>
	<path fill="#D3849A" d="M308.5,337l-0.3-2.3h-0.1c-1.3,1.6-3.4,2.7-6,2.7c-4.1,0-6.4-3-6.4-6.1c0-5.2,4.6-7.8,12.1-7.7v-0.3
		c0-1.3-0.5-3.6-4.2-3.6c-2,0-4.1,0.6-5.5,1.5l-1-3.4c1.5-0.9,4.2-1.8,7.4-1.8c6.6,0,8.4,4.2,8.4,8.6v7.4c0,1.8,0.1,3.7,0.3,4.9
		H308.5z M307.9,327c-3.7-0.1-7.1,0.7-7.1,3.8c0,2,1.3,2.9,2.9,2.9c2.1,0,3.6-1.3,4-2.8c0.1-0.4,0.2-0.8,0.2-1.1V327z"/>
	<path fill="#D3849A" d="M330.8,310.7v5.8h4.9v3.9h-4.9v9c0,2.5,0.7,3.8,2.6,3.8c0.9,0,1.6-0.1,2-0.3l0.1,3.9
		c-0.8,0.3-2.1,0.5-3.7,0.5c-1.9,0-3.5-0.6-4.5-1.7c-1.1-1.2-1.6-3-1.6-5.7v-9.6h-2.9v-3.9h2.9v-4.6L330.8,310.7z"/>
	<path fill="#D3849A" d="M365.5,326.6c0,7.5-5.3,10.9-10.5,10.9c-5.8,0-10.3-4-10.3-10.5c0-6.7,4.4-10.8,10.6-10.8
		C361.4,316.1,365.5,320.3,365.5,326.6z M350.1,326.8c0,3.9,1.9,6.9,5.1,6.9c2.9,0,5-2.9,5-7c0-3.2-1.4-6.8-5-6.8
		C351.5,319.8,350.1,323.4,350.1,326.8z"/>
	<path fill="#D3849A" d="M376.5,323.1c0-2.8,0-4.7-0.2-6.6h4.5l0.2,3.9h0.2c1-2.9,3.4-4.4,5.6-4.4c0.5,0,0.8,0,1.2,0.1v4.9
		c-0.4-0.1-0.9-0.2-1.5-0.2c-2.5,0-4.2,1.6-4.6,3.9c-0.1,0.5-0.2,1-0.2,1.6V337h-5.2V323.1z"/>
	<path fill="#364EA1" d="M183.4,360.9c0-2.8,0-4.7-0.2-6.6h4.5l0.2,3.9h0.2c1-2.9,3.4-4.4,5.6-4.4c0.5,0,0.8,0,1.2,0.1v4.9
		c-0.4-0.1-0.9-0.2-1.5-0.2c-2.5,0-4.2,1.6-4.6,3.9c-0.1,0.5-0.2,1-0.2,1.6v10.6h-5.2V360.9z"/>
	<path fill="#364EA1" d="M208.3,365.9c0.1,3.7,3,5.3,6.3,5.3c2.4,0,4.1-0.3,5.7-0.9l0.8,3.6c-1.8,0.7-4.2,1.3-7.1,1.3
		c-6.6,0-10.5-4.1-10.5-10.3c0-5.7,3.4-11,10-11c6.6,0,8.8,5.5,8.8,10c0,1-0.1,1.7-0.2,2.2H208.3z M217.3,362.3c0-1.9-0.8-5-4.2-5
		c-3.2,0-4.5,2.9-4.7,5H217.3z"/>
	<path fill="#364EA1" d="M233.1,344.9h5.2v29.8h-5.2V344.9z"/>
	<path fill="#364EA1" d="M268.8,377.9v2.1h-21v-2.1H268.8z"/>
	<path fill="#364EA1" d="M278.3,344.9h5.2v29.8h-5.2V344.9z"/>
	<path fill="#364EA1" d="M301.3,348.5c0,1.6-1.1,2.8-2.9,2.8c-1.7,0-2.9-1.2-2.9-2.8c0-1.6,1.2-2.8,2.9-2.8
		C300.2,345.7,301.3,347,301.3,348.5z M295.8,374.7v-20.5h5.2v20.5H295.8z"/>
	<path fill="#364EA1" d="M313.3,360.4c0-2.4,0-4.3-0.2-6.1h4.5l0.3,3.1h0.1c0.9-1.6,3.1-3.5,6.5-3.5c3.6,0,7.3,2.3,7.3,8.8v12.1
		h-5.2v-11.6c0-2.9-1.1-5.2-3.9-5.2c-2.1,0-3.5,1.5-4,3c-0.2,0.5-0.2,1.1-0.2,1.7v12h-5.2V360.4z"/>
	<path fill="#364EA1" d="M349.2,363.3L349.2,363.3c0.6-0.8,1.2-1.7,1.7-2.4l5-6.6h6.2l-7.6,8.4l8.7,12.1h-6.3l-5.9-9l-1.8,2.1v7H344
		v-29.8h5.2V363.3z"/>
</g>
<line fill="none" stroke="#ED1C24" stroke-width="3" stroke-miterlimit="10" x1="136.2" y1="23.2" x2="413.8" y2="23.2"/>
<line fill="none" stroke="#606161" stroke-width="3" stroke-miterlimit="10" x1="173.8" y1="60.2" x2="376.2" y2="60.2"/>
<line fill="none" stroke="#ED1C24" stroke-width="3" stroke-miterlimit="10" x1="51.9" y1="99.2" x2="498.1" y2="99.2"/>
<line fill="none" stroke="#ED1C24" stroke-width="3" stroke-miterlimit="10" x1="125.4" y1="138.2" x2="424.6" y2="138.2"/>
<line fill="none" stroke="#ED1C24" stroke-width="3" stroke-miterlimit="10" x1="94.4" y1="177.1" x2="455.6" y2="177.1"/>
<line fill="none" stroke="#ED1C24" stroke-width="3" stroke-miterlimit="10" x1="132.9" y1="211.7" x2="417.1" y2="211.7"/>
<line fill="none" stroke="#ED1C24" stroke-width="3" stroke-miterlimit="10" x1="157.5" y1="250.1" x2="392.5" y2="250.1"/>
<line fill="none" stroke="#ED1C24" stroke-width="3" stroke-miterlimit="10" x1="107.5" y1="289.1" x2="442.5" y2="289.1"/>
<line fill="none" stroke="#787878" stroke-width="3" stroke-miterlimit="10" x1="143.5" y1="326.3" x2="406.5" y2="326.3"/>
<line fill="none" stroke="#ED1C24" stroke-width="3" stroke-miterlimit="10" x1="164" y1="362.1" x2="386" y2="362.1"/>
<g>
</g>
<g>
</g>
<g>
</g>
<g>
</g>
<g>
</g>
<g>
</g>
</svg>
